<mxfile host="Electron" modified="2023-08-29T16:41:47.359Z" agent="Mozilla/5.0 (Windows NT 10.0; Win64; x64) AppleWebKit/537.36 (KHTML, like Gecko) draw.io/21.6.5 Chrome/114.0.5735.243 Electron/25.3.1 Safari/537.36" etag="RvTgU219urU-w6P2kUBZ" version="21.6.5" type="device">
  <diagram name="第 1 页" id="77sZ5vG2opPDJuYnOLY6">
    <mxGraphModel dx="713" dy="417" grid="1" gridSize="10" guides="1" tooltips="1" connect="1" arrows="1" fold="1" page="1" pageScale="1" pageWidth="827" pageHeight="1169" math="0" shadow="0">
      <root>
        <mxCell id="0" />
        <mxCell id="1" parent="0" />
        <mxCell id="pjI1Wl-0HSyzvhN7JqCh-1" value="" style="rounded=0;whiteSpace=wrap;html=1;" vertex="1" parent="1">
          <mxGeometry x="272" y="229" width="297" height="114" as="geometry" />
        </mxCell>
        <mxCell id="pjI1Wl-0HSyzvhN7JqCh-2" value="" style="endArrow=classic;html=1;rounded=0;entryX=0;entryY=0.5;entryDx=0;entryDy=0;" edge="1" parent="1" target="pjI1Wl-0HSyzvhN7JqCh-1">
          <mxGeometry width="50" height="50" relative="1" as="geometry">
            <mxPoint x="196" y="287" as="sourcePoint" />
            <mxPoint x="230" y="275" as="targetPoint" />
          </mxGeometry>
        </mxCell>
        <mxCell id="pjI1Wl-0HSyzvhN7JqCh-3" value="集群信息&lt;br&gt;DAG Application描述&lt;br&gt;执行，能耗信息" style="text;html=1;strokeColor=none;fillColor=none;align=center;verticalAlign=middle;whiteSpace=wrap;rounded=0;" vertex="1" parent="1">
          <mxGeometry x="120" y="250" width="120" height="30" as="geometry" />
        </mxCell>
        <mxCell id="pjI1Wl-0HSyzvhN7JqCh-4" value="function部署到哪台服务器（可能是云，可能是边缘）" style="text;html=1;strokeColor=none;fillColor=none;align=center;verticalAlign=middle;whiteSpace=wrap;rounded=0;" vertex="1" parent="1">
          <mxGeometry x="590" y="250" width="153" height="30" as="geometry" />
        </mxCell>
        <mxCell id="pjI1Wl-0HSyzvhN7JqCh-5" value="" style="endArrow=classic;html=1;rounded=0;exitX=1;exitY=0.5;exitDx=0;exitDy=0;" edge="1" parent="1" source="pjI1Wl-0HSyzvhN7JqCh-1">
          <mxGeometry width="50" height="50" relative="1" as="geometry">
            <mxPoint x="436" y="381" as="sourcePoint" />
            <mxPoint x="646" y="286" as="targetPoint" />
          </mxGeometry>
        </mxCell>
        <mxCell id="pjI1Wl-0HSyzvhN7JqCh-6" value="https://gitlab.com/andersonandrei/foa-a-multi-objective-scheduling-policyfor-serverless" style="text;html=1;strokeColor=none;fillColor=none;align=center;verticalAlign=middle;whiteSpace=wrap;rounded=0;" vertex="1" parent="1">
          <mxGeometry x="430" y="440" width="60" height="30" as="geometry" />
        </mxCell>
      </root>
    </mxGraphModel>
  </diagram>
</mxfile>
